<svg width="98" height="20" viewBox="0 0 98 20" fill="none" xmlns="http://www.w3.org/2000/svg">
<path d="M7.56 5.38C8.08 5.38 8.51333 5.45333 8.86 5.6C9.22 5.74667 9.5 5.93333 9.7 6.16C9.94 6.41333 10.1067 6.75333 10.2 7.18C10.2933 7.59333 10.34 8.12 10.34 8.76V14.14C10.34 14.7 10.4333 15.08 10.62 15.28C10.82 15.48 11.1533 15.58 11.62 15.58V16C11.38 15.9867 11.02 15.9733 10.54 15.96C10.06 15.9333 9.59333 15.92 9.14 15.92C8.66 15.92 8.19333 15.9333 7.74 15.96C7.3 15.9733 6.96667 15.9867 6.74 16V15.58C7.12667 15.58 7.4 15.48 7.56 15.28C7.73333 15.08 7.82 14.7 7.82 14.14V8.08C7.82 7.72 7.79333 7.4 7.74 7.12C7.68667 6.82667 7.57333 6.6 7.4 6.44C7.22667 6.26667 6.96 6.18 6.6 6.18C6.18667 6.18 5.81333 6.3 5.48 6.54C5.14667 6.78 4.88 7.11333 4.68 7.54C4.49333 7.95333 4.4 8.42 4.4 8.94V14.14C4.4 14.7 4.48 15.08 4.64 15.28C4.8 15.48 5.08 15.58 5.48 15.58V16C5.25333 15.9867 4.92 15.9733 4.48 15.96C4.05333 15.9333 3.61333 15.92 3.16 15.92C2.66667 15.92 2.16667 15.9333 1.66 15.96C1.15333 15.9733 0.773333 15.9867 0.52 16V15.58C1.01333 15.58 1.36 15.48 1.56 15.28C1.77333 15.08 1.88 14.7 1.88 14.14V7.84C1.88 7.24 1.78 6.8 1.58 6.52C1.39333 6.22667 1.04 6.08 0.52 6.08V5.66C0.946667 5.7 1.36 5.72 1.76 5.72C2.25333 5.72 2.72 5.7 3.16 5.66C3.61333 5.60667 4.02667 5.53333 4.4 5.44V7.44C4.73333 6.70667 5.18 6.18 5.74 5.86C6.3 5.54 6.90667 5.38 7.56 5.38ZM13.58 5.38C14.1 5.38 14.5333 5.45333 14.88 5.6C15.24 5.74667 15.52 5.93333 15.72 6.16C15.96 6.41333 16.1267 6.75333 16.22 7.18C16.3133 7.59333 16.36 8.12 16.36 8.76V14.14C16.36 14.7 16.46 15.08 16.66 15.28C16.8733 15.48 17.2267 15.58 17.72 15.58V16C17.48 15.9867 17.1067 15.9733 16.6 15.96C16.1067 15.9333 15.6267 15.92 15.16 15.92C14.68 15.92 14.2133 15.9333 13.76 15.96C13.32 15.9733 12.9867 15.9867 12.76 16V15.58C13.1467 15.58 13.42 15.48 13.58 15.28C13.7533 15.08 13.84 14.7 13.84 14.14V8.08C13.84 7.72 13.8067 7.4 13.74 7.12C13.6867 6.82667 13.5667 6.6 13.38 6.44C13.1933 6.26667 12.9133 6.18 12.54 6.18C12.1267 6.18 11.7533 6.30667 11.42 6.56C11.0867 6.81333 10.82 7.15333 10.62 7.58C10.4333 7.99333 10.3333 8.46 10.32 8.98L10.22 7.54C10.58 6.71333 11.06 6.14667 11.66 5.84C12.26 5.53333 12.9 5.38 13.58 5.38ZM27.913 5.66V6.08C27.6596 6.13333 27.4196 6.27333 27.193 6.5C26.9796 6.72667 26.773 7.12667 26.573 7.7L23.613 15.82L22.993 16.76L18.873 7.2C18.6196 6.69333 18.3796 6.38 18.153 6.26C17.9263 6.14 17.7396 6.08 17.593 6.08V5.66C17.9796 5.7 18.3796 5.73333 18.793 5.76C19.2196 5.77333 19.6463 5.78 20.073 5.78C20.5663 5.78 21.0396 5.76667 21.493 5.74C21.9596 5.71333 22.393 5.68667 22.793 5.66V6.08C22.4863 6.08 22.213 6.1 21.973 6.14C21.733 6.18 21.573 6.29333 21.493 6.48C21.4263 6.65333 21.4796 6.96 21.653 7.4L24.153 13.5L23.993 13.58L25.753 8.82C25.9796 8.19333 26.073 7.68667 26.033 7.3C25.993 6.91333 25.8463 6.62 25.593 6.42C25.3396 6.22 24.993 6.10667 24.553 6.08V5.66C24.7663 5.67333 24.9796 5.68667 25.193 5.7C25.4063 5.71333 25.613 5.72667 25.813 5.74C26.013 5.74 26.2063 5.74 26.393 5.74C26.673 5.74 26.9463 5.73333 27.213 5.72C27.493 5.70667 27.7263 5.68667 27.913 5.66ZM23.613 15.82L22.853 17.84C22.733 18.1733 22.5996 18.4533 22.453 18.68C22.3196 18.92 22.1663 19.1133 21.993 19.26C21.793 19.4333 21.5463 19.56 21.253 19.64C20.973 19.72 20.6596 19.76 20.313 19.76C20.0063 19.76 19.7063 19.7067 19.413 19.6C19.133 19.4933 18.893 19.3333 18.693 19.12C18.5063 18.9067 18.413 18.6267 18.413 18.28C18.413 17.9067 18.5396 17.6067 18.793 17.38C19.0463 17.1533 19.393 17.04 19.833 17.04C20.2196 17.04 20.533 17.1333 20.773 17.32C21.0263 17.52 21.153 17.8133 21.153 18.2C21.153 18.4533 21.0796 18.68 20.933 18.88C20.7863 19.08 20.5796 19.2333 20.313 19.34C20.3796 19.3533 20.4396 19.36 20.493 19.36C20.5596 19.3733 20.613 19.38 20.653 19.38C21.0396 19.38 21.3863 19.2533 21.693 19C21.9996 18.7467 22.2463 18.3467 22.433 17.8L23.153 15.82H23.613Z" fill="#E5397B"/>
<path d="M28.7864 1.84C29.1197 1.85333 29.5464 1.86667 30.0664 1.88C30.5864 1.89333 31.1064 1.9 31.6264 1.9C32.2797 1.9 32.8997 1.89333 33.4864 1.88C34.0731 1.86667 34.4864 1.86 34.7264 1.86C36.5131 1.86 37.8397 2.22667 38.7064 2.96C39.5864 3.69333 40.0264 4.64 40.0264 5.8C40.0264 6.28 39.9397 6.78667 39.7664 7.32C39.5931 7.84 39.2931 8.32667 38.8664 8.78C38.4397 9.22 37.8531 9.58 37.1064 9.86C36.3731 10.14 35.4331 10.28 34.2864 10.28H32.2864V9.88H34.0864C34.9264 9.88 35.5664 9.7 36.0064 9.34C36.4597 8.98 36.7597 8.50667 36.9064 7.92C37.0664 7.33333 37.1464 6.7 37.1464 6.02C37.1464 4.75333 36.9397 3.80667 36.5264 3.18C36.1131 2.55333 35.3997 2.24 34.3864 2.24C33.8397 2.24 33.4797 2.35333 33.3064 2.58C33.1464 2.80667 33.0664 3.26667 33.0664 3.96V13.8C33.0664 14.3067 33.1197 14.6867 33.2264 14.94C33.3331 15.1933 33.5397 15.36 33.8464 15.44C34.1531 15.52 34.5931 15.5667 35.1664 15.58V16C34.7797 15.9733 34.2797 15.96 33.6664 15.96C33.0531 15.9467 32.4197 15.94 31.7664 15.94C31.2064 15.94 30.6664 15.9467 30.1464 15.96C29.6264 15.96 29.1731 15.9733 28.7864 16V15.6C29.2264 15.5733 29.5531 15.52 29.7664 15.44C29.9931 15.36 30.1397 15.2 30.2064 14.96C30.2864 14.72 30.3264 14.36 30.3264 13.88V3.96C30.3264 3.46667 30.2864 3.10667 30.2064 2.88C30.1397 2.64 29.9931 2.48 29.7664 2.4C29.5531 2.30667 29.2264 2.25333 28.7864 2.24V1.84ZM45.8344 5.38C46.7544 5.38 47.5677 5.56667 48.2744 5.94C48.9944 6.3 49.561 6.88 49.9744 7.68C50.401 8.48 50.6144 9.53333 50.6144 10.84C50.6144 12.1467 50.401 13.2 49.9744 14C49.561 14.8 48.9944 15.38 48.2744 15.74C47.5677 16.1 46.7544 16.28 45.8344 16.28C44.9144 16.28 44.0944 16.1 43.3744 15.74C42.6544 15.38 42.0877 14.8 41.6744 14C41.261 13.2 41.0544 12.1467 41.0544 10.84C41.0544 9.53333 41.261 8.48 41.6744 7.68C42.0877 6.88 42.6544 6.3 43.3744 5.94C44.0944 5.56667 44.9144 5.38 45.8344 5.38ZM45.8344 5.78C45.2077 5.78 44.6944 6.18 44.2944 6.98C43.9077 7.76667 43.7144 9.05333 43.7144 10.84C43.7144 12.6267 43.9077 13.9133 44.2944 14.7C44.6944 15.4867 45.2077 15.88 45.8344 15.88C46.4477 15.88 46.9544 15.4867 47.3544 14.7C47.7544 13.9133 47.9544 12.6267 47.9544 10.84C47.9544 9.05333 47.7544 7.76667 47.3544 6.98C46.9544 6.18 46.4477 5.78 45.8344 5.78ZM55.4909 0.339999V14.14C55.4909 14.7 55.5909 15.08 55.7909 15.28C56.0043 15.48 56.3576 15.58 56.8509 15.58V16C56.6109 15.9867 56.2443 15.9733 55.7509 15.96C55.2709 15.9333 54.7776 15.92 54.2709 15.92C53.7776 15.92 53.2709 15.9333 52.7509 15.96C52.2443 15.9733 51.8643 15.9867 51.6109 16V15.58C52.1043 15.58 52.4509 15.48 52.6509 15.28C52.8643 15.08 52.9709 14.7 52.9709 14.14V2.74C52.9709 2.14 52.8776 1.7 52.6909 1.42C52.5043 1.12667 52.1443 0.979999 51.6109 0.979999V0.56C52.0376 0.599999 52.4509 0.619999 52.8509 0.619999C53.3576 0.619999 53.8309 0.599999 54.2709 0.56C54.7109 0.506666 55.1176 0.433333 55.4909 0.339999ZM60.2656 0.56C60.7456 0.56 61.139 0.693333 61.4456 0.959999C61.7523 1.22667 61.9056 1.58 61.9056 2.02C61.9056 2.46 61.7523 2.81333 61.4456 3.08C61.139 3.34667 60.7456 3.48 60.2656 3.48C59.7856 3.48 59.3923 3.34667 59.0856 3.08C58.779 2.81333 58.6256 2.46 58.6256 2.02C58.6256 1.58 58.779 1.22667 59.0856 0.959999C59.3923 0.693333 59.7856 0.56 60.2656 0.56ZM61.6656 5.44V14.14C61.6656 14.7 61.7656 15.08 61.9656 15.28C62.179 15.48 62.5323 15.58 63.0256 15.58V16C62.7856 15.9867 62.419 15.9733 61.9256 15.96C61.4323 15.9333 60.9323 15.92 60.4256 15.92C59.9323 15.92 59.4323 15.9333 58.9256 15.96C58.419 15.9733 58.039 15.9867 57.7856 16V15.58C58.279 15.58 58.6256 15.48 58.8256 15.28C59.039 15.08 59.1456 14.7 59.1456 14.14V7.86C59.1456 7.24667 59.0456 6.8 58.8456 6.52C58.659 6.22667 58.3056 6.08 57.7856 6.08V5.66C58.2123 5.7 58.6256 5.72 59.0256 5.72C59.519 5.72 59.9856 5.7 60.4256 5.66C60.879 5.60667 61.2923 5.53333 61.6656 5.44ZM69.058 5.38C69.5513 5.38 70.0046 5.44 70.418 5.56C70.8446 5.66667 71.2113 5.82 71.518 6.02C71.838 6.22 72.0913 6.47333 72.278 6.78C72.4646 7.07333 72.558 7.4 72.558 7.76C72.558 8.2 72.4246 8.55333 72.158 8.82C71.8913 9.08667 71.558 9.22 71.158 9.22C70.7446 9.22 70.4046 9.1 70.138 8.86C69.8846 8.62 69.758 8.3 69.758 7.9C69.758 7.51333 69.8713 7.19333 70.098 6.94C70.3246 6.68667 70.598 6.52 70.918 6.44C70.798 6.26667 70.6113 6.12667 70.358 6.02C70.1046 5.9 69.8246 5.84 69.518 5.84C69.118 5.84 68.758 5.94667 68.438 6.16C68.118 6.36 67.838 6.66667 67.598 7.08C67.3713 7.48 67.1913 7.98 67.058 8.58C66.938 9.16667 66.878 9.84667 66.878 10.62C66.878 11.7 67.0046 12.5533 67.258 13.18C67.5246 13.8067 67.8646 14.2533 68.278 14.52C68.6913 14.7733 69.1313 14.9 69.598 14.9C69.878 14.9 70.178 14.8467 70.498 14.74C70.818 14.6333 71.1313 14.4533 71.438 14.2C71.758 13.9467 72.0446 13.5867 72.298 13.12L72.678 13.26C72.5313 13.7267 72.2913 14.1933 71.958 14.66C71.638 15.1267 71.218 15.5133 70.698 15.82C70.178 16.1267 69.5446 16.28 68.798 16.28C67.9446 16.28 67.1713 16.0867 66.478 15.7C65.7846 15.3 65.2313 14.7 64.818 13.9C64.418 13.1 64.218 12.1067 64.218 10.92C64.218 9.74667 64.4246 8.75333 64.838 7.94C65.2513 7.11333 65.8246 6.48 66.558 6.04C67.3046 5.6 68.138 5.38 69.058 5.38ZM76.2813 0.56C76.7613 0.56 77.1546 0.693333 77.4613 0.959999C77.7679 1.22667 77.9213 1.58 77.9213 2.02C77.9213 2.46 77.7679 2.81333 77.4613 3.08C77.1546 3.34667 76.7613 3.48 76.2813 3.48C75.8013 3.48 75.4079 3.34667 75.1013 3.08C74.7946 2.81333 74.6413 2.46 74.6413 2.02C74.6413 1.58 74.7946 1.22667 75.1013 0.959999C75.4079 0.693333 75.8013 0.56 76.2813 0.56ZM77.6813 5.44V14.14C77.6813 14.7 77.7813 15.08 77.9813 15.28C78.1946 15.48 78.5479 15.58 79.0413 15.58V16C78.8013 15.9867 78.4346 15.9733 77.9413 15.96C77.4479 15.9333 76.9479 15.92 76.4413 15.92C75.9479 15.92 75.4479 15.9333 74.9413 15.96C74.4346 15.9733 74.0546 15.9867 73.8013 16V15.58C74.2946 15.58 74.6413 15.48 74.8413 15.28C75.0546 15.08 75.1613 14.7 75.1613 14.14V7.86C75.1613 7.24667 75.0613 6.8 74.8613 6.52C74.6746 6.22667 74.3213 6.08 73.8013 6.08V5.66C74.2279 5.7 74.6413 5.72 75.0413 5.72C75.5346 5.72 76.0013 5.7 76.4413 5.66C76.8946 5.60667 77.3079 5.53333 77.6813 5.44ZM84.9936 5.38C86.1669 5.38 87.0869 5.73333 87.7536 6.44C88.4203 7.14667 88.7536 8.27333 88.7536 9.82H82.0136L81.9936 9.44H86.4336C86.4603 8.78667 86.4203 8.18667 86.3136 7.64C86.2069 7.08 86.0336 6.63333 85.7936 6.3C85.5669 5.96667 85.2669 5.8 84.8936 5.8C84.3869 5.8 83.9469 6.1 83.5736 6.7C83.2003 7.28667 82.9669 8.25333 82.8736 9.6L82.9536 9.72C82.9269 9.89333 82.9069 10.08 82.8936 10.28C82.8936 10.48 82.8936 10.68 82.8936 10.88C82.8936 11.8 83.0269 12.56 83.2936 13.16C83.5603 13.76 83.9069 14.2 84.3336 14.48C84.7603 14.76 85.2003 14.9 85.6536 14.9C85.9603 14.9 86.2736 14.8533 86.5936 14.76C86.9136 14.6667 87.2269 14.4933 87.5336 14.24C87.8403 13.9867 88.1203 13.6267 88.3736 13.16L88.7536 13.32C88.6069 13.7867 88.3603 14.2533 88.0136 14.72C87.6803 15.1733 87.2469 15.5467 86.7136 15.84C86.1803 16.1333 85.5536 16.28 84.8336 16.28C83.9269 16.28 83.1269 16.08 82.4336 15.68C81.7403 15.28 81.2003 14.6867 80.8136 13.9C80.4269 13.1 80.2336 12.1267 80.2336 10.98C80.2336 9.76667 80.4336 8.74667 80.8336 7.92C81.2469 7.09333 81.8136 6.46667 82.5336 6.04C83.2536 5.6 84.0736 5.38 84.9936 5.38ZM93.8713 5.38C94.4313 5.38 94.9113 5.46 95.3113 5.62C95.7113 5.78 96.0046 5.92 96.1913 6.04C96.6446 6.37333 96.9179 6.16 97.0113 5.4H97.4513C97.4246 5.78667 97.4046 6.24667 97.3913 6.78C97.3779 7.3 97.3713 8 97.3713 8.88H96.9313C96.8646 8.38667 96.7379 7.90667 96.5513 7.44C96.3646 6.97333 96.0913 6.58667 95.7313 6.28C95.3713 5.96 94.8979 5.8 94.3113 5.8C93.8979 5.8 93.5513 5.92 93.2713 6.16C93.0046 6.4 92.8713 6.74 92.8713 7.18C92.8713 7.58 92.9913 7.93333 93.2313 8.24C93.4713 8.53333 93.7779 8.81333 94.1513 9.08C94.5379 9.33333 94.9379 9.61333 95.3513 9.92C95.8313 10.24 96.2579 10.5667 96.6313 10.9C97.0046 11.22 97.3046 11.58 97.5313 11.98C97.7579 12.3667 97.8713 12.8267 97.8713 13.36C97.8713 13.9733 97.6979 14.5 97.3513 14.94C97.0179 15.3667 96.5713 15.7 96.0113 15.94C95.4646 16.1667 94.8579 16.28 94.1913 16.28C93.8313 16.28 93.5046 16.2467 93.2113 16.18C92.9179 16.1133 92.6579 16.0267 92.4313 15.92C92.2579 15.8267 92.0979 15.74 91.9513 15.66C91.8179 15.58 91.6779 15.5133 91.5313 15.46C91.3979 15.3933 91.2779 15.42 91.1713 15.54C91.0779 15.66 91.0046 15.86 90.9513 16.14H90.5113C90.5379 15.7133 90.5579 15.1933 90.5713 14.58C90.5846 13.9667 90.5913 13.1533 90.5913 12.14H91.0313C91.1246 12.8733 91.2646 13.52 91.4513 14.08C91.6513 14.6267 91.9379 15.06 92.3113 15.38C92.6846 15.6867 93.1646 15.84 93.7513 15.84C94.0046 15.84 94.2446 15.7867 94.4713 15.68C94.7113 15.5733 94.9046 15.4067 95.0513 15.18C95.2113 14.9533 95.2913 14.6467 95.2913 14.26C95.2913 13.6733 95.0913 13.1867 94.6913 12.8C94.2913 12.4133 93.7913 12 93.1913 11.56C92.7379 11.2267 92.3113 10.9 91.9113 10.58C91.5246 10.26 91.2046 9.9 90.9513 9.5C90.7113 9.1 90.5913 8.62667 90.5913 8.08C90.5913 7.48 90.7446 6.98667 91.0513 6.6C91.3579 6.2 91.7579 5.9 92.2513 5.7C92.7579 5.48667 93.2979 5.38 93.8713 5.38Z" fill="#121212"/>
</svg>
